<svg xmlns="http://www.w3.org/2000/svg" viewBox="0 0 544.86 414.99">
  <defs>
    <style>
      .a{fill:#ffffff;}.b{fill:none;}
    </style>
  </defs>
  <path d="M266.13 137.06l4.42.18a1.81 1.81 0 0 1 1.63 1.21c1.25 3.54 4.61 14.57 4.63 24.16 0 5.76-5.19 21.23-5.19 21.23s9.27-18.69 9.27-21.11c0-2.08-1.94-19.35-2.49-24.16a1 1 0 0 1 1.1-1.15l4.35.32c1.45 0 4.14 3.39 6 7.61l4.15 9.48a23.55 23.55 0 0 0 11.12 10.77c4.27 1.71 11.84 4.61 11.84 4.61l-10.23-4.87a19.76 19.76 0 0 1-10.59-11.06c-1.87-4.6-4.45-12.67-5.33-15.49a1.11 1.11 0 0 1 .71-1.39 18.12 18.12 0 0 1 3.07-.75l1.56-.16c3.79 7.27 9.27 8.81 13.22 8.81s5.72-1.14 9.49-3a1.12 1.12 0 0 1 1.06 0l2.17 1.31c.6.36.77 2.34.37 4.4s-1.22 5.43-1.84 7.5 3.2 7.81 3.2 7.81l1.94 2.57s-4.08-7.37-4.07-9.24c0-.58 1.62-7.17 2.15-9.27s.39-4.15-.32-4.56l-2.61-1.48c-.72-.41-.54-1.54-.54-1.54a15.31 15.31 0 0 0 1.7-6 15.31 15.31 0 0 0-1.7-6s-.18-1.14.54-1.54l2.61-1.48c.71-.41.86-2.46.32-4.56s-2.15-8.69-2.15-9.27c0-1.88 4.07-9.24 4.07-9.24l-1.94 2.57s-3.83 5.75-3.2 7.81 1.45 5.43 1.84 7.5.22 4-.37 4.4l-2.17 1.31a1.12 1.12 0 0 1-1.06 0c-3.78-1.87-5.55-3-9.49-3s-9.44 1.54-13.22 8.81l-1.55-.11a18.12 18.12 0 0 1-3.07-.75 1.11 1.11 0 0 1-.71-1.39c.89-2.82 3.46-10.89 5.33-15.49a19.76 19.76 0 0 1 10.59-11.06L317 97.43s-7.57 2.9-11.84 4.61A23.55 23.55 0 0 0 294 112.81l-4.15 9.48c-1.85 4.22-4.54 7.64-6 7.61l-4.35.32a1 1 0 0 1-1.1-1.15c.54-4.81 2.49-22.07 2.49-24.16 0-2.42-9.27-21.11-9.27-21.11s5.2 15.47 5.19 21.23c0 9.59-3.39 20.62-4.63 24.16a1.81 1.81 0 0 1-1.63 1.21l-4.42.18a1.89 1.89 0 0 1-1.85-1.23c-1.63-4.38-7-18.57-9.11-20.32-2.46-2.07-31-15.72-31-15.72s25.88 15.46 28.3 18.07c2 2.15 4 13.75 4.67 17.85a1.26 1.26 0 0 1-1.22 1.47l-3 .07a6 6 0 0 1-4.12-1.5c-6-5.31-10.84-6.73-16-6.73-5.62 0-10.12 5.32-10.12 11.28s4.5 11.28 10.12 11.28c5.15 0 10-1.43 16-6.73a6 6 0 0 1 4.12-1.5l3 .07a1.26 1.26 0 0 1 1.22 1.47c-.66 4.1-2.68 15.7-4.67 17.85-2.42 2.62-28.3 18.07-28.3 18.07s28.5-13.65 31-15.72c2.08-1.75 7.47-15.93 9.11-20.32a1.89 1.89 0 0 1 1.85-1.23zM194.7 222q5.17 5.5 5.17 14.25v28.59h-12.41v-26a11.85 11.85 0 0 0-2.59-8 8.66 8.66 0 0 0-6.91-3q-11.66 0-11.66 16.18v20.79h-12.42v-46.89h12.42v4.23q5.64-5.64 14.77-5.65 8.46 0 13.63 5.5zm43.91 42.19a20.09 20.09 0 0 1-9.35 2.07q-8.65 0-13.54-4.65t-4.89-14.06v-19.48h-10.07v-10.15h10.06v-16.09h12.42v16.08h15.33v10.16h-15.33v18.53c0 5.39 2 8.09 6.87 8.09a23 23 0 0 0 8.47-1.61zm43.6-42.19q5.17 5.5 5.17 14.25v28.59H275v-26a11.85 11.85 0 0 0-2.59-8 8.66 8.66 0 0 0-6.91-3q-11.66 0-11.67 16.18v20.79h-12.44v-63h12.41v20.32q5.64-5.64 14.77-5.65 8.43.02 13.64 5.52zm162.98 42.85h-12.42v-3.67a23.94 23.94 0 0 1-15.52 5.08 21.85 21.85 0 0 1-16.18-7.05q-6.87-7.05-6.86-17.78t6.91-17.82a21.83 21.83 0 0 1 16.13-7.1q9.31 0 15.52 5.17v-19.85h12.42zm-16.46-13.31a13.43 13.43 0 0 0 4-10.11 13.58 13.58 0 0 0-4-10.16 12.94 12.94 0 0 0-9.31-3.95 12.56 12.56 0 0 0-9.45 3.86q-3.72 3.85-3.72 10.25t3.75 10.21a12.64 12.64 0 0 0 9.45 3.81 13 13 0 0 0 9.28-3.91zm-278.06 13.31h-12.42v-3.67a23.94 23.94 0 0 1-15.52 5.08 21.86 21.86 0 0 1-16.18-7.06q-6.87-7.06-6.87-17.78t6.92-17.83a21.84 21.84 0 0 1 16.13-7.1q9.31 0 15.52 5.17v-3.76h12.42zm-16.47-13.31a13.43 13.43 0 0 0 4-10.11 13.58 13.58 0 0 0-4-10.16 13 13 0 0 0-9.31-4 12.56 12.56 0 0 0-9.46 3.86q-3.72 3.86-3.72 10.25t3.72 10.21a12.64 12.64 0 0 0 9.46 3.81 13 13 0 0 0 9.31-3.86zm251.1-27.84q7.38 6.91 7.38 17.73t-7.38 17.73a25.26 25.26 0 0 1-17.92 6.91 25.66 25.66 0 0 1-18.15-6.91q-7.43-6.91-7.43-17.73t7.43-17.73a25.67 25.67 0 0 1 18.15-6.91 25.27 25.27 0 0 1 17.92 6.91zm-8.7 27.84a14.66 14.66 0 0 0 0-20.22 12.92 12.92 0 0 0-9.22-3.9 14 14 0 0 0 0 28 12.91 12.91 0 0 0 9.22-3.88zm-43.76-27.84q7.38 6.91 7.38 17.73t-7.38 17.73a25.26 25.26 0 0 1-17.92 6.91 25.66 25.66 0 0 1-18.15-6.91q-7.43-6.91-7.43-17.73t7.43-17.73a25.67 25.67 0 0 1 18.15-6.91 25.27 25.27 0 0 1 17.92 6.91zm-8.7 27.84a14.66 14.66 0 0 0 0-20.22 12.92 12.92 0 0 0-9.22-3.9 14 14 0 0 0 0 28 12.91 12.91 0 0 0 9.22-3.88zm-185.05 47.6a6 6 0 0 1 4.31 1.53 5.88 5.88 0 0 1 0 8.11 6.23 6.23 0 0 1-4.43 1.54h-3.79v4.92h-4v-16.1zm-.46 7.85a2.56 2.56 0 0 0 1.81-.61 2.13 2.13 0 0 0 .66-1.64 2.06 2.06 0 0 0-.67-1.6 2.57 2.57 0 0 0-1.8-.61h-3.51V307zm24.91-5.76a8.39 8.39 0 0 1 0 11.92 8.82 8.82 0 0 1-12.18 0 8.39 8.39 0 0 1 0-11.92 8.79 8.79 0 0 1 12.18 0zm-2.8 9.38a4.68 4.68 0 0 0 1.32-3.4 4.75 4.75 0 0 0-1.32-3.43 4.64 4.64 0 0 0-6.58 0 4.75 4.75 0 0 0-1.32 3.43 4.68 4.68 0 0 0 1.32 3.4 4.67 4.67 0 0 0 6.58 0zm26.62 4.63h-4.25l-2.69-9.94-2.71 9.94h-4.23l-4.59-16.09H173l2.81 10.14 2.76-10.14h3.77l2.76 10.14 2.81-10.14H192zm21.08 0H195.9v-16.1h12.47v3.41h-8.5v3h7.81v3.22h-7.81v3h8.57zm15.13 0l-4.85-5.52h-1.15v5.52h-4v-16.1h8.14a6 6 0 0 1 4.2 1.45 4.92 4.92 0 0 1 1.58 3.81 5 5 0 0 1-1.13 3.33 5.38 5.38 0 0 1-3.1 1.79l5 5.72zm-2.26-8.84a2.57 2.57 0 0 0 1.69-.53 1.75 1.75 0 0 0 .64-1.42 1.72 1.72 0 0 0-.64-1.39 2.57 2.57 0 0 0-1.69-.53h-3.75v3.87zm23.69 8.84h-12.58v-16.1h12.47v3.41h-8.5v3h7.81v3.22h-7.81v3H245zm11.49-16.1a9.09 9.09 0 0 1 6.39 2.22 8.2 8.2 0 0 1 0 11.65 9.09 9.09 0 0 1-6.39 2.22h-6.37v-16.09zm-.14 12.66a5.1 5.1 0 0 0 3.62-1.26 4.82 4.82 0 0 0 0-6.7 5.1 5.1 0 0 0-3.62-1.26h-2.26v9.22zm32.13-4.8a3.29 3.29 0 0 1 2.17 1.06 3.65 3.65 0 0 1 .92 2.64 4.2 4.2 0 0 1-1.37 3.29 5.72 5.72 0 0 1-3.94 1.22h-8.36v-16.07h8.33a5.09 5.09 0 0 1 3.54 1.2 4.09 4.09 0 0 1 1.33 3.19 3.35 3.35 0 0 1-.84 2.4 2.88 2.88 0 0 1-1.8 1zm-6.61-1.22h3.46a2 2 0 0 0 1.42-.49 1.7 1.7 0 0 0 .53-1.31 1.53 1.53 0 0 0-.52-1.2 1.87 1.87 0 0 0-1.29-.46h-3.6zm3.7 6.24a2.05 2.05 0 0 0 1.45-.48 1.72 1.72 0 0 0 .52-1.32A1.6 1.6 0 0 0 287 309a2 2 0 0 0-1.37-.47h-3.77V312zm18.94 3.22h-4v-5l-6.22-11.1h4.32l4 7.06 3.92-7.06h4.42l-6.36 11zm26.23-16.1a6 6 0 0 1 4.31 1.53 5.88 5.88 0 0 1 0 8.11 6.23 6.23 0 0 1-4.43 1.54h-3.79v4.92h-4v-16.1zm-.46 7.85a2.56 2.56 0 0 0 1.81-.61 2.13 2.13 0 0 0 .66-1.64 2.06 2.06 0 0 0-.67-1.6 2.57 2.57 0 0 0-1.8-.61h-3.51V307zm10.72 8.25v-16.1h4v16.09zm15.92-5.48l-3.34 5.48h-4.68l5-8.07-5-8h4.68l3.29 5.43 3.31-5.43h4.68l-5 8 5 8.07h-4.68zm24.52 5.48h-12.53v-16.1h12.47v3.41h-8.5v3h7.81v3.22h-7.81v3h8.57zm17.06 0h-11.89v-16.1h4v12.63h7.93zM411.3 300a5.34 5.34 0 0 1 2.23 3.42l-3.89.79a2.63 2.63 0 0 0-1-1.67 2.94 2.94 0 0 0-1.8-.59 2.46 2.46 0 0 0-1.56.47 1.42 1.42 0 0 0-.6 1.17q0 1.06 1.3 1.34l3.34.74q4.42 1 4.42 4.68a4.47 4.47 0 0 1-1.9 3.84 7.87 7.87 0 0 1-4.73 1.37 8.5 8.5 0 0 1-4.77-1.29 4.9 4.9 0 0 1-2.27-3.59l4.08-.79a3.37 3.37 0 0 0 4.91 1.92 1.41 1.41 0 0 0 .64-1.2 1.26 1.26 0 0 0-.32-.91 2.22 2.22 0 0 0-1.17-.5l-3.36-.72q-4.32-1-4.32-4.66a4.45 4.45 0 0 1 1.75-3.7 7.28 7.28 0 0 1 4.61-1.37 7.55 7.55 0 0 1 4.41 1.25z" class="a"/>
  <path d="M0 0h544.86v414.99H0z" class="b"/>
</svg>